<?xml version="1.0" standalone="no"?>
<!DOCTYPE svg PUBLIC "-//W3C//DTD SVG 20010904//EN"
 "http://www.w3.org/TR/2001/REC-SVG-20010904/DTD/svg10.dtd">
<svg version="1.0" xmlns="http://www.w3.org/2000/svg"
 width="1024.000000pt" height="1024.000000pt" viewBox="0 0 1024.000000 1024.000000"
 preserveAspectRatio="xMidYMid meet">

<g transform="translate(0.000000,1024.000000) scale(0.100000,-0.100000)"
fill="#000000" stroke="none">
<path d="M1663 6140 c-147 -51 -243 -77 -376 -105 -68 -15 -79 -20 -88 -43
-15 -38 0 -56 54 -64 74 -10 127 -45 156 -103 l26 -49 0 -591 0 -590 -22 -42
c-28 -51 -85 -86 -165 -103 l-58 -11 0 -45 0 -44 448 2 447 3 0 44 0 45 -60
11 c-74 14 -139 47 -162 82 -17 25 -18 73 -21 614 l-3 587 78 57 c129 96 169
110 298 110 96 0 116 -3 158 -24 55 -26 108 -92 128 -156 16 -52 24 -1058 9
-1123 -6 -24 -20 -57 -32 -73 -25 -33 -109 -79 -146 -79 -44 0 -62 -17 -62
-60 l0 -40 445 0 445 0 0 44 c0 42 -2 45 -32 51 -117 23 -177 66 -197 140 -7
27 -11 228 -11 597 l0 556 43 37 c23 21 79 55 125 77 72 35 93 41 171 46 153
8 253 -41 302 -150 l24 -53 3 -519 c3 -587 1 -609 -57 -667 -34 -35 -90 -59
-136 -59 -31 0 -45 -20 -45 -62 l0 -38 433 2 432 3 0 45 0 45 -46 6 c-92 13
-159 64 -178 134 -7 27 -11 226 -11 597 0 446 -3 571 -15 633 -24 127 -91 227
-193 288 -97 59 -152 72 -287 71 -106 0 -130 -4 -206 -30 -106 -37 -198 -97
-311 -204 l-87 -81 -30 59 c-90 178 -259 270 -476 259 -175 -9 -290 -70 -452
-241 -92 -97 -95 -100 -90 -66 3 19 9 95 13 169 5 108 4 135 -7 142 -20 12
-19 13 -176 -41z"/>
<path d="M8210 6176 c-25 -7 -89 -30 -143 -50 -100 -38 -263 -80 -352 -91 -67
-8 -76 -15 -82 -62 l-5 -40 57 -6 c89 -9 144 -42 180 -107 l30 -55 0 -590 c0
-577 0 -591 -21 -625 -11 -19 -35 -45 -54 -57 -30 -21 -54 -29 -133 -47 -26
-6 -28 -10 -25 -49 l3 -42 453 -3 c447 -2 452 -2 453 18 1 11 2 26 3 33 5 29
-15 45 -76 57 -106 20 -164 60 -186 129 -8 23 -12 201 -12 570 l-1 536 78 68
c163 144 242 148 338 17 20 -28 46 -57 58 -65 48 -34 120 -7 177 65 36 45 110
199 110 228 0 24 -92 112 -151 143 -37 20 -58 24 -139 24 -86 0 -102 -3 -163
-32 -82 -39 -167 -117 -249 -230 -33 -46 -63 -83 -67 -83 -3 0 -2 75 2 167 8
154 8 168 -9 180 -20 15 -15 15 -74 -1z"/>
<path d="M4935 6163 c-164 -35 -317 -117 -439 -236 -95 -94 -121 -147 -121
-249 0 -82 12 -110 66 -150 41 -31 118 -27 175 8 61 38 88 92 102 207 20 160
51 215 146 265 44 23 63 27 141 27 74 0 98 -4 131 -22 117 -62 163 -194 164
-464 l0 -106 -32 -10 c-144 -47 -538 -205 -646 -259 -200 -100 -292 -198 -323
-346 -28 -130 13 -287 100 -381 141 -152 425 -180 636 -63 68 39 172 127 225
192 38 47 50 48 50 4 0 -87 67 -198 143 -237 44 -23 65 -27 142 -27 142 -1
250 48 356 161 67 71 74 88 52 118 -10 13 -22 25 -26 25 -5 0 -29 -17 -53 -37
-36 -29 -56 -37 -98 -41 -48 -4 -57 -1 -86 25 -22 20 -35 42 -41 73 -4 25 -8
286 -8 580 0 343 -4 552 -10 582 -41 181 -187 317 -388 362 -90 20 -263 20
-358 -1z m365 -1127 l0 -294 -47 -41 c-27 -23 -79 -58 -118 -78 -128 -67 -272
-55 -352 30 -17 18 -38 53 -48 79 -25 66 -17 186 15 254 32 66 120 152 205
199 69 39 308 142 333 144 9 1 12 -64 12 -293z"/>
<path d="M6176 6101 c-3 -44 -18 -156 -32 -248 -41 -280 -41 -261 -11 -268 46
-12 58 -2 86 71 41 105 84 175 144 231 102 97 190 121 465 130 l184 6 -55 -89
c-30 -49 -146 -246 -257 -439 -112 -192 -240 -413 -285 -490 -45 -77 -121
-210 -170 -295 -48 -85 -109 -191 -135 -235 -26 -44 -51 -90 -54 -102 l-7 -23
693 1 c381 1 704 4 718 8 24 7 25 11 47 191 12 102 25 220 29 262 l7 77 -27 7
c-34 8 -39 2 -64 -62 -40 -107 -143 -229 -242 -287 -80 -46 -153 -58 -417 -64
-233 -6 -258 -3 -234 23 5 5 180 308 388 674 514 901 533 935 533 951 0 12
-85 14 -545 11 -547 -3 -605 0 -731 34 -20 5 -21 1 -28 -75z"/>
</g>
</svg>
